<?xml version="1.0" standalone="no"?>
<!DOCTYPE svg PUBLIC "-//W3C//DTD SVG 20010904//EN"
 "http://www.w3.org/TR/2001/REC-SVG-20010904/DTD/svg10.dtd">
<svg version="1.0" xmlns="http://www.w3.org/2000/svg"
 width="512.000000pt" height="512.000000pt" viewBox="0 0 512.000000 512.000000"
 preserveAspectRatio="xMidYMid meet">
<metadata>
Created by potrace 1.11, written by Peter Selinger 2001-2013
</metadata>
<g transform="translate(0.000000,512.000000) scale(0.100000,-0.100000)"
fill="#000000" stroke="none">
<path d="M3140 4305 c-121 -15 -188 -29 -248 -51 -92 -34 -96 -142 -7 -179 27
-12 41 -11 105 5 128 33 248 43 453 38 265 -7 448 -47 631 -139 43 -21 91 -39
108 -39 68 0 112 68 84 134 -12 29 -29 42 -98 77 -276 139 -672 198 -1028 154z"/>
<path d="M3180 3959 c-36 -4 -107 -18 -157 -29 -73 -17 -97 -27 -113 -47 -29
-37 -26 -79 7 -109 30 -28 35 -28 161 0 287 64 641 20 880 -110 102 -55 172
-39 172 40 0 47 -22 69 -118 116 -240 118 -566 173 -832 139z"/>
<path d="M3270 3634 c-14 -2 -65 -9 -115 -15 -121 -14 -194 -34 -211 -56 -20
-27 -17 -57 11 -83 20 -19 31 -22 62 -16 283 51 506 48 687 -9 28 -8 92 -35
143 -60 77 -37 97 -43 118 -35 34 13 49 54 33 87 -25 51 -236 140 -397 169
-87 15 -286 26 -331 18z"/>
<path d="M2404 3362 c-7 -10 -271 -319 -588 -686 -317 -367 -579 -678 -582
-692 -19 -75 33 -183 140 -290 115 -115 240 -169 307 -134 18 10 1281 1093
1351 1159 16 15 -5 38 -300 339 -284 290 -318 321 -328 304z"/>
<path d="M2672 1741 c-153 -45 -170 -58 -542 -426 -397 -393 -393 -390 -535
-390 -78 0 -97 4 -141 27 -67 35 -138 115 -160 180 -34 103 -9 233 60 316 l26
30 -28 18 c-42 28 -137 121 -168 166 l-29 41 -43 -49 c-51 -58 -116 -185 -137
-269 -19 -76 -19 -212 1 -295 28 -119 78 -206 173 -301 99 -98 190 -149 312
-175 95 -20 240 -14 329 15 134 42 174 75 535 432 289 285 348 339 394 358 65
28 158 30 230 6 64 -21 144 -92 179 -159 23 -44 27 -63 27 -141 0 -122 -15
-147 -191 -326 -79 -80 -148 -158 -154 -173 -17 -46 -12 -115 11 -153 26 -41
85 -73 137 -73 58 0 111 40 262 197 145 151 187 210 227 325 23 63 27 90 27
198 1 105 -3 136 -22 195 -64 193 -207 341 -400 413 -92 34 -285 41 -380 13z"/>
</g>
</svg>
